<?xml version="1.0" standalone="no"?>
<!DOCTYPE svg PUBLIC "-//W3C//DTD SVG 20010904//EN"
 "http://www.w3.org/TR/2001/REC-SVG-20010904/DTD/svg10.dtd">
<svg version="1.0" xmlns="http://www.w3.org/2000/svg"
 width="733.000000pt" height="733.000000pt" viewBox="0 0 733.000000 733.000000"
 preserveAspectRatio="xMidYMid meet">
<metadata>
Created by potrace 1.11, written by Peter Selinger 2001-2013
</metadata>
<g transform="translate(0.000000,733.000000) scale(0.100000,-0.100000)"
fill="#000000" stroke="none">
<path d="M3223 6596 c-60 -27 -65 -45 -66 -251 -1 -102 -4 -185 -7 -185 -15 0
-116 44 -150 65 -22 14 -46 25 -54 25 -8 0 -17 4 -21 9 -8 13 -63 -4 -89 -28
-17 -15 -35 -18 -101 -16 -44 1 -82 -1 -85 -5 -3 -4 -36 -10 -75 -14 -175 -15
-212 -26 -241 -71 -25 -39 -26 -76 -1 -125 22 -44 24 -45 80 -52 32 -4 65 -12
75 -17 16 -9 15 -10 -3 -17 -11 -4 -40 -15 -64 -25 -24 -11 -50 -19 -57 -19
-7 0 -11 -6 -8 -14 3 -8 -3 -19 -15 -26 -12 -6 -21 -7 -21 -3 0 4 -4 3 -8 -3
-10 -16 -57 -30 -47 -14 6 9 3 9 -13 1 -11 -6 -29 -11 -39 -11 -23 0 -202 -91
-303 -155 -41 -26 -88 -55 -104 -64 -16 -9 -52 -39 -81 -66 -29 -28 -98 -82
-154 -120 -57 -37 -110 -80 -119 -94 -28 -46 -66 -78 -107 -91 -22 -7 -66 -31
-98 -52 -74 -51 -200 -158 -193 -166 3 -3 -13 -19 -37 -36 -23 -17 -44 -34
-47 -38 -3 -4 -48 -52 -99 -107 -162 -173 -212 -252 -270 -431 -17 -52 -36
-97 -41 -100 -5 -3 -14 -34 -18 -69 -8 -56 -7 -66 12 -94 21 -31 106 -68 106
-46 0 6 4 8 9 5 5 -3 3 -23 -4 -44 -34 -96 -46 -382 -31 -727 4 -93 9 -187 11
-209 7 -62 41 -101 96 -109 21 -4 23 -9 25 -83 2 -111 11 -203 30 -307 2 -10
16 -46 32 -80 34 -70 49 -122 32 -112 -15 9 -15 9 37 -132 34 -92 56 -137 79
-160 33 -34 51 -39 124 -34 27 1 68 49 82 93 11 37 28 43 28 9 0 -9 18 -36 40
-60 22 -23 40 -48 40 -55 0 -7 16 -32 36 -55 20 -23 46 -54 58 -69 23 -29 135
-141 215 -215 28 -26 51 -53 51 -59 0 -6 3 -9 6 -5 7 6 110 -69 183 -133 24
-21 69 -52 100 -69 31 -16 66 -39 78 -50 29 -28 65 -35 106 -22 41 14 64 37
71 71 2 14 9 45 14 70 5 25 7 66 5 90 -2 25 0 40 4 34 9 -13 137 -109 231
-172 34 -24 62 -45 62 -49 0 -3 -11 2 -25 11 -13 9 -28 16 -32 16 -4 0 5 -9
21 -19 16 -11 35 -17 41 -14 7 2 16 -1 21 -8 5 -8 3 -10 -6 -4 -8 5 -11 4 -6
-3 4 -6 12 -9 19 -7 7 3 28 -10 49 -27 20 -18 81 -62 137 -97 55 -35 98 -67
96 -71 -6 -10 68 -40 96 -40 57 0 93 44 115 140 9 41 26 98 39 125 12 28 20
56 17 64 -3 10 2 12 22 7 33 -8 110 -81 101 -96 -3 -5 3 -10 14 -10 11 0 25
-8 30 -19 6 -10 28 -26 49 -34 22 -9 46 -22 54 -30 8 -8 32 -24 54 -35 22 -11
61 -38 88 -60 92 -76 125 -67 232 64 44 54 85 99 90 99 19 0 96 71 108 100 7
16 33 52 57 78 23 27 45 59 46 70 2 12 11 29 19 37 15 14 16 12 12 -17 -2 -18
0 -29 5 -26 5 3 8 -8 6 -23 -1 -16 4 -45 13 -64 23 -55 31 -103 15 -97 -24 9
28 -158 57 -182 9 -7 14 -16 11 -20 -2 -4 13 -13 33 -21 20 -7 40 -17 44 -23
4 -7 17 -5 39 5 18 9 38 14 45 11 6 -2 65 19 130 48 176 77 193 83 170 64 -11
-8 -24 -15 -30 -15 -5 0 -7 -3 -3 -6 3 -3 72 29 154 72 81 43 171 89 198 103
28 14 55 30 60 37 9 12 134 66 145 63 9 -2 102 52 215 125 60 39 112 71 115
71 13 2 109 56 115 65 3 5 10 10 15 10 5 0 -2 -26 -16 -57 -52 -117 -24 -168
104 -187 67 -9 234 57 271 108 8 10 22 26 33 35 10 8 18 19 18 24 0 5 -7 3
-17 -4 -15 -13 -15 -11 1 19 9 18 21 30 26 27 12 -7 70 72 70 95 0 10 7 24 16
31 9 7 30 38 47 67 16 30 36 56 43 59 7 2 15 16 18 29 4 15 11 22 18 18 8 -5
9 -2 5 10 -4 9 -3 15 2 12 11 -7 31 17 67 79 29 50 30 54 33 78 1 9 15 14 36
15 35 1 65 20 65 40 0 6 21 32 48 59 50 52 80 120 138 313 15 52 31 100 35
105 3 6 10 28 14 50 5 22 10 47 12 55 6 26 6 242 0 298 -3 31 -2 50 4 47 10
-7 12 8 11 74 -1 24 -5 47 -9 50 -13 9 -15 33 -3 26 6 -4 17 1 25 11 7 11 19
19 26 19 17 0 59 73 59 103 0 12 5 22 11 22 5 0 7 5 4 10 -3 6 -2 10 3 10 10
0 10 20 -1 60 -3 14 -8 55 -10 91 -2 36 -7 71 -11 77 -9 16 7 15 22 0 17 -17
15 -5 -5 37 -10 20 -20 30 -23 24 -4 -6 -9 -2 -13 10 -3 12 -1 19 3 16 4 -3 6
4 3 15 -3 11 -9 17 -14 14 -5 -3 -6 2 -3 11 9 22 -5 73 -15 56 -6 -9 -14 2
-24 33 -9 26 -11 46 -6 46 5 0 12 -7 15 -15 4 -8 10 -15 16 -15 5 0 6 5 2 12
-4 6 -9 29 -10 50 -3 42 -34 128 -47 128 -5 0 -5 5 -2 10 3 6 1 10 -5 10 -7 0
-10 6 -7 13 3 7 -1 21 -9 32 -8 10 -14 26 -14 36 0 9 -13 33 -29 53 -20 25
-27 43 -23 58 4 17 2 20 -11 15 -9 -3 -19 -2 -22 3 -4 6 -2 10 3 10 18 0 53
39 61 67 16 55 10 194 -10 246 -11 27 -17 52 -14 56 2 5 -6 40 -19 79 -13 39
-22 72 -20 75 2 2 -32 55 -76 118 -44 63 -97 139 -117 170 -26 38 -58 67 -101
95 -73 45 -115 98 -51 64 10 -6 19 -9 19 -6 0 2 -25 19 -55 36 -30 17 -59 40
-65 50 -5 10 -33 34 -62 53 -29 20 -66 49 -81 66 -16 17 -34 31 -40 31 -7 0
-6 5 3 11 12 8 9 9 -11 5 -29 -6 -79 25 -79 48 0 7 -30 27 -67 45 -95 45 -116
58 -104 62 6 2 14 21 17 41 6 32 2 41 -24 68 -29 28 -72 41 -72 21 0 -6 -13
-6 -32 1 -41 14 -59 28 -52 39 3 5 -4 9 -16 9 -25 0 -142 31 -153 40 -4 4 21
1 55 -7 100 -22 112 -23 96 -7 -20 20 -271 85 -279 72 -9 -14 -97 7 -171 42
-51 25 -96 30 -154 19 -27 -5 -84 2 -80 10 9 14 -14 18 -89 15 -50 -2 -63 0
-45 6 17 6 5 7 -37 4 -44 -4 -63 -2 -63 6 0 8 -23 11 -75 8 -46 -2 -75 1 -75
7 1 15 23 40 40 43 8 1 36 25 63 53 54 57 60 92 27 146 -28 47 -90 58 -215 39
-16 -3 -52 -8 -80 -11 -27 -4 -58 -8 -67 -11 -9 -3 -26 -7 -39 -9 -12 -2 -38
-13 -58 -23 -20 -10 -42 -17 -48 -15 -7 3 -16 -2 -19 -11 -3 -9 -17 -16 -31
-16 -23 0 -128 -52 -216 -107 -32 -20 -43 -22 -72 -14 -18 5 -36 6 -39 3 -4
-3 -16 4 -29 15 -12 11 -40 32 -63 46 -22 14 -56 40 -75 57 -53 49 -221 157
-254 164 -17 3 -44 -1 -62 -8z m3563 -3075 c-9 -17 -16 -33 -16 -36 0 -3 0 -9
0 -13 0 -4 -9 -8 -20 -9 -17 -2 -16 3 13 46 36 54 47 60 23 12z m-99 -541 c1
-11 -2 -22 -8 -25 -7 -5 -7 18 0 43 3 8 7 -1 8 -18z m-934 -1347 c-7 -2 -19
-2 -25 0 -7 3 -2 5 12 5 14 0 19 -2 13 -5z"/>
<path d="M5617 6019 c7 -7 15 -10 18 -7 3 3 -2 9 -12 12 -14 6 -15 5 -6 -5z"/>
</g>
</svg>
