<?xml version="1.0" standalone="no"?>
<!DOCTYPE svg PUBLIC "-//W3C//DTD SVG 20010904//EN"
 "http://www.w3.org/TR/2001/REC-SVG-20010904/DTD/svg10.dtd">
<svg version="1.0" xmlns="http://www.w3.org/2000/svg"
 width="600.000000pt" height="600.000000pt" viewBox="0 0 600.000000 600.000000"
 preserveAspectRatio="xMidYMid meet">
<metadata>
Created by potrace 1.11, written by Peter Selinger 2001-2013
</metadata>
<g transform="translate(0.000000,600.000000) scale(0.100000,-0.100000)"
fill="#000000" stroke="none">
<path d="M4350 5520 c0 -69 -3 -82 -22 -100 -21 -19 -31 -21 -95 -16 l-73 6 0
-68 c0 -38 -5 -83 -11 -101 l-11 -31 -84 0 -84 0 0 -78 c0 -47 -5 -83 -12 -90
-7 -7 -43 -12 -90 -12 l-78 0 0 -85 c0 -79 -1 -85 -22 -90 -13 -3 -448 -4
-968 -3 l-945 3 -3 87 -3 87 -87 3 -87 3 -3 188 -2 188 -63 -3 -62 -3 -3 -163
c-3 -212 -3 -212 -118 -212 l-84 0 0 -65 0 -65 84 0 c117 0 116 2 116 -225 0
-147 -2 -177 -15 -181 -8 -4 -15 -12 -15 -20 0 -11 -19 -14 -85 -14 l-85 0 -2
-177 -3 -178 -90 -3 -90 -3 -2 -185 c-1 -102 -5 -189 -8 -194 -4 -6 -44 -10
-91 -10 l-84 0 2 -257 3 -256 84 -3 c55 -2 87 -8 93 -16 5 -7 7 -88 6 -181
l-3 -167 86 0 c70 0 88 -3 93 -16 3 -9 6 -137 6 -285 l0 -269 83 0 c109 -1
122 -11 119 -88 -1 -31 -5 -65 -8 -74 -5 -16 3 -18 71 -18 110 0 115 -4 115
-100 l0 -80 85 0 c102 0 99 3 100 -123 0 -67 -3 -90 -15 -97 -8 -5 -52 -10
-97 -10 -78 0 -83 -1 -89 -23 -6 -26 1 -305 12 -424 l6 -72 86 -3 c82 -3 86
-4 93 -28 4 -14 7 -271 8 -572 l1 -548 1290 0 1290 0 0 95 0 95 90 0 90 0 0
86 c0 120 3 124 100 124 l80 0 0 80 c0 97 4 100 124 100 l86 0 0 90 0 90 90 0
90 0 0 90 0 90 90 0 90 0 0 170 0 170 -66 0 -66 0 7 -59 c4 -33 4 -73 0 -90
l-6 -30 -92 -3 -92 -3 0 -75 c0 -65 -4 -79 -24 -102 -23 -26 -30 -28 -98 -28
l-73 0 0 -52 c0 -29 -3 -70 -6 -91 l-7 -37 -88 0 -89 0 0 -74 c0 -41 -3 -81
-6 -90 -5 -14 -33 -16 -205 -16 l-198 0 -3 88 -3 87 -89 3 c-50 2 -96 8 -103
14 -9 7 -13 37 -13 89 l0 79 -80 0 c-71 0 -80 2 -91 22 -8 16 -10 117 -4 387
6 319 9 368 23 379 9 7 47 12 94 12 l78 0 0 79 c0 111 0 111 207 111 90 0 164
1 165 3 1 1 4 83 7 182 l6 180 85 5 85 5 3 178 2 178 26 9 c14 6 99 10 190 10
l164 0 0 356 c0 226 4 362 10 375 9 16 22 19 90 19 44 0 81 1 82 3 1 1 4 83 7
182 l6 180 85 5 85 5 5 178 c4 143 8 180 20 187 8 5 43 10 78 10 108 0 102
-16 102 258 0 130 -3 247 -6 260 -6 20 -12 22 -85 22 l-79 0 0 -74 c0 -107 1
-106 -85 -106 -92 0 -105 -12 -105 -96 0 -65 -16 -98 -47 -100 -10 0 -48 -1
-85 -2 l-68 -2 0 -69 c0 -91 -10 -101 -99 -101 -39 0 -72 -5 -79 -12 -9 -9
-12 -84 -12 -274 0 -299 9 -274 -99 -274 -39 0 -72 -5 -79 -12 -7 -7 -12 -39
-12 -76 0 -97 -5 -102 -105 -102 -79 0 -85 1 -90 23 -3 12 -4 94 -3 182 l3
160 89 3 c50 2 96 8 103 14 10 8 13 70 13 274 0 172 4 265 10 269 6 4 87 6
180 5 l170 -1 0 471 0 470 -169 0 c-193 0 -181 6 -181 -95 0 -90 -9 -96 -124
-93 l-91 3 -3 273 -2 272 -70 0 -70 0 0 -80z m-2076 -1389 c14 -15 18 -38 19
-99 l0 -80 77 -4 c42 -2 82 -8 88 -12 9 -5 12 -124 12 -476 0 -257 -3 -475 -6
-484 -5 -13 -23 -16 -90 -16 l-84 0 0 -78 c0 -47 -5 -83 -12 -90 -8 -8 -48
-12 -115 -12 -93 0 -103 2 -103 18 0 10 -3 22 -7 26 -4 3 -6 29 -4 57 4 72 -6
79 -104 79 -66 0 -84 3 -89 16 -3 9 -6 228 -6 488 l0 473 46 7 c26 3 66 6 89
6 56 0 67 15 64 89 -1 34 1 64 4 68 4 3 7 15 7 25 0 16 10 18 98 18 85 0 101
-3 116 -19z m1499 1 c11 -12 17 -41 19 -97 l3 -80 76 -6 c42 -4 82 -10 88 -13
16 -11 16 -947 -1 -964 -7 -7 -43 -12 -90 -12 l-78 0 0 -78 c0 -47 -5 -83 -12
-90 -8 -8 -48 -12 -115 -12 l-103 0 0 78 c0 47 -5 83 -12 90 -7 7 -44 12 -95
12 -71 0 -84 3 -93 19 -13 25 -14 947 -1 955 5 4 45 9 88 12 106 9 115 15 113
72 -2 26 -2 66 -1 90 l1 42 98 0 c82 0 102 -3 115 -18z m-25 -2532 c2 -71 0
-87 -14 -97 -21 -15 -102 -17 -138 -3 -25 9 -26 13 -26 93 0 46 3 87 7 91 4 4
43 5 88 4 l80 -3 3 -85z m-543 -696 c6 -9 10 -79 10 -180 0 -198 3 -194 -117
-194 l-78 0 6 -73 c4 -40 3 -121 -1 -180 l-7 -107 -104 0 -104 0 0 90 0 90
-89 0 c-116 0 -124 7 -119 104 2 46 8 75 17 82 10 8 16 37 18 94 2 46 8 89 14
97 9 10 51 13 179 13 144 0 169 2 174 16 3 9 6 49 6 89 l0 74 33 3 c64 6 151
-4 162 -18z"/>
<path d="M2075 3918 c-3 -7 -4 -218 -3 -468 l3 -455 85 0 85 0 0 465 0 465
-83 3 c-60 2 -84 -1 -87 -10z"/>
<path d="M3575 3918 c-3 -7 -4 -218 -3 -468 l3 -455 78 -3 c50 -2 84 1 93 9
12 9 14 85 14 448 0 240 -3 446 -6 459 -6 21 -12 22 -90 22 -59 0 -86 -4 -89
-12z"/>
<path d="M5853 1863 c3 -93 6 -169 6 -170 2 -5 79 -3 110 3 l31 7 0 163 0 164
-76 0 -76 0 5 -167z"/>
<path d="M5474 1641 c-2 -2 -4 -73 -4 -158 l0 -153 65 0 64 0 3 88 3 87 103 3
102 3 0 64 c0 45 -4 65 -12 65 -161 4 -321 4 -324 1z"/>
</g>
</svg>
